<svg width="156" height="31" viewBox="0 0 156 31" fill="none" xmlns="http://www.w3.org/2000/svg">
<g clip-path="url(#clip0_259_276)">
<path d="M19.9 19.09C20.84 20.3 21.31 21.67 21.31 23.22C21.31 25.45 20.53 27.22 18.97 28.53C17.41 29.84 15.23 30.49 12.44 30.49H0V3.77002H12.03C14.74 3.77002 16.87 4.39002 18.4 5.63002C19.93 6.87002 20.7 8.56002 20.7 10.69C20.7 12.26 20.29 13.57 19.46 14.61C18.63 15.65 17.54 16.37 16.17 16.78C17.72 17.11 18.96 17.88 19.9 19.08V19.09ZM6.5 14.58H10.76C11.83 14.58 12.64 14.35 13.21 13.88C13.78 13.41 14.07 12.72 14.07 11.81C14.07 10.9 13.78 10.2 13.21 9.72002C12.64 9.24002 11.82 9.00002 10.76 9.00002H6.5V14.59V14.58ZM13.83 24.49C14.43 24 14.72 23.28 14.72 22.34C14.72 21.4 14.41 20.67 13.79 20.13C13.17 19.59 12.31 19.33 11.22 19.33H6.5V25.23H11.29C12.38 25.23 13.22 24.98 13.82 24.49H13.83Z" fill="white"/>
<path d="M25.56 6.03C24.84 5.36 24.48 4.53 24.48 3.54C24.48 2.55 24.84 1.68 25.56 1.01C26.28 0.34 27.22 0 28.36 0C29.5 0 30.4 0.34 31.12 1.01C31.84 1.68 32.2 2.53 32.2 3.54C32.2 4.55 31.84 5.36 31.12 6.03C30.4 6.7 29.48 7.04 28.36 7.04C27.24 7.04 26.29 6.7 25.56 6.03ZM31.59 9.25V30.49H25.08V9.25H31.59Z" fill="white"/>
<path d="M69.7001 11.42C71.2601 13.02 72.0401 15.24 72.0401 18.08V30.49H65.5701V18.96C65.5701 17.59 65.2101 16.53 64.4901 15.78C63.7701 15.03 62.7701 14.66 61.5001 14.66C60.2301 14.66 59.2401 15.03 58.5101 15.78C57.7901 16.53 57.4301 17.59 57.4301 18.96V30.49H50.9601V18.96C50.9601 17.59 50.6001 16.53 49.8801 15.78C49.1601 15.03 48.1601 14.66 46.8901 14.66C45.6201 14.66 44.6301 15.03 43.9001 15.78C43.1801 16.53 42.8201 17.59 42.8201 18.96V30.49H36.3101V9.25002H42.8201V11.91C43.4801 11.02 44.3401 10.32 45.4101 9.80002C46.4801 9.28002 47.6801 9.02002 49.0301 9.02002C50.6301 9.02002 52.0601 9.36002 53.3101 10.05C54.5601 10.74 55.5501 11.71 56.2601 12.98C57.0001 11.81 58.0001 10.86 59.2701 10.13C60.5401 9.39002 61.9201 9.03002 63.4201 9.03002C66.0601 9.03002 68.1601 9.83002 69.7201 11.43L69.7001 11.42Z" fill="white"/>
<path d="M76.86 29.78C76.14 29.11 75.78 28.28 75.78 27.29C75.78 26.3 76.14 25.42 76.86 24.74C77.58 24.05 78.52 23.71 79.66 23.71C80.8 23.71 81.7 24.05 82.42 24.74C83.14 25.42 83.5 26.28 83.5 27.29C83.5 28.3 83.14 29.11 82.42 29.78C81.7 30.45 80.78 30.79 79.66 30.79C78.54 30.79 77.59 30.45 76.86 29.78Z" fill="white"/>
<path d="M128.8 11.42C130.36 13.02 131.14 15.24 131.14 18.08V30.49H124.67V18.96C124.67 17.59 124.31 16.53 123.59 15.78C122.87 15.03 121.87 14.66 120.6 14.66C119.33 14.66 118.34 15.03 117.61 15.78C116.89 16.53 116.53 17.59 116.53 18.96V30.49H110.06V18.96C110.06 17.59 109.7 16.53 108.98 15.78C108.26 15.03 107.26 14.66 105.99 14.66C104.72 14.66 103.73 15.03 103 15.78C102.28 16.53 101.92 17.59 101.92 18.96V30.49H95.4099V9.25002H101.92V11.91C102.58 11.02 103.44 10.32 104.51 9.80002C105.58 9.28002 106.78 9.02002 108.13 9.02002C109.73 9.02002 111.16 9.36002 112.41 10.05C113.66 10.74 114.65 11.71 115.36 12.98C116.1 11.81 117.1 10.86 118.37 10.13C119.64 9.39002 121.02 9.03002 122.52 9.03002C125.16 9.03002 127.26 9.83002 128.82 11.43L128.8 11.42Z" fill="white"/>
<path d="M155.61 21.43H140.88C140.98 22.75 141.41 23.76 142.16 24.46C142.91 25.16 143.83 25.51 144.92 25.51C146.54 25.51 147.67 24.82 148.31 23.46H155.24C154.88 24.86 154.24 26.11 153.32 27.23C152.39 28.35 151.23 29.22 149.84 29.86C148.44 30.49 146.88 30.81 145.16 30.81C143.08 30.81 141.23 30.37 139.6 29.48C137.98 28.59 136.71 27.32 135.79 25.67C134.87 24.02 134.42 22.09 134.42 19.89C134.42 17.69 134.87 15.75 135.77 14.1C136.67 12.45 137.93 11.18 139.56 10.29C141.18 9.40002 143.05 8.96002 145.15 8.96002C147.25 8.96002 149.03 9.39002 150.63 10.25C152.23 11.11 153.48 12.34 154.38 13.94C155.28 15.54 155.73 17.4 155.73 19.53C155.73 20.14 155.69 20.77 155.62 21.43H155.61ZM149.07 17.81C149.07 16.69 148.69 15.81 147.93 15.15C147.17 14.49 146.22 14.16 145.08 14.16C143.94 14.16 143.07 14.48 142.32 15.11C141.57 15.74 141.11 16.65 140.93 17.81H149.07Z" fill="white"/>
</g>
<defs>
<clipPath id="clip0_259_276">
<rect width="155.73" height="30.79" fill="white"/>
</clipPath>
</defs>
</svg>
